<svg width="60" height="61" viewBox="0 0 60 61" fill="none" xmlns="http://www.w3.org/2000/svg">
<g clip-path="url(#clip0_4284_3921)">
<path d="M31.3258 44.2635L43.7443 31.845C44.4868 31.1025 44.4868 29.8995 43.7443 29.157L31.3258 16.7385C30.7078 16.1205 29.6518 16.5585 29.6518 17.4315V23.505C29.6518 24.108 29.1628 24.597 28.5598 24.597H16.6243C16.1128 24.597 15.6973 25.0125 15.6973 25.524V35.4795C15.6973 35.991 16.1128 36.4065 16.6243 36.4065H28.5598C29.1628 36.4065 29.6518 36.8955 29.6518 37.4985V43.572C29.6518 44.445 30.7078 44.883 31.3258 44.265V44.2635Z" fill="#0F2F70"/>
</g>
<defs>
<clipPath id="clip0_4284_3921">
<rect width="60" height="60" fill="white" transform="translate(0 0.5)"/>
</clipPath>
</defs>
</svg>
