<svg width="40" height="40" viewBox="0 0 40 40" fill="none" xmlns="http://www.w3.org/2000/svg">
<path d="M34.999 20.0007C34.999 20.3322 34.8673 20.6502 34.6329 20.8846C34.3985 21.119 34.0805 21.2507 33.749 21.2507H9.26622L18.3834 30.3663C18.4995 30.4825 18.5917 30.6203 18.6545 30.7721C18.7174 30.9238 18.7497 31.0865 18.7497 31.2507C18.7497 31.4149 18.7174 31.5776 18.6545 31.7293C18.5917 31.8811 18.4995 32.0189 18.3834 32.1351C18.2673 32.2512 18.1294 32.3433 17.9777 32.4062C17.8259 32.469 17.6633 32.5014 17.499 32.5014C17.3348 32.5014 17.1722 32.469 17.0204 32.4062C16.8687 32.3433 16.7308 32.2512 16.6147 32.1351L5.36466 20.8851C5.24843 20.769 5.15624 20.6311 5.09333 20.4794C5.03043 20.3276 4.99805 20.165 4.99805 20.0007C4.99805 19.8364 5.03043 19.6738 5.09333 19.522C5.15624 19.3703 5.24843 19.2324 5.36466 19.1163L16.6147 7.86632C16.8492 7.63177 17.1673 7.5 17.499 7.5C17.8307 7.5 18.1489 7.63177 18.3834 7.86632C18.618 8.10087 18.7497 8.41899 18.7497 8.75069C18.7497 9.0824 18.618 9.40052 18.3834 9.63507L9.26622 18.7507H33.749C34.0805 18.7507 34.3985 18.8824 34.6329 19.1168C34.8673 19.3512 34.999 19.6692 34.999 20.0007Z" fill="black"/>
</svg>
