<svg width="50" height="51" viewBox="0 0 50 51" fill="none" xmlns="http://www.w3.org/2000/svg">
<g clip-path="url(#clip0_4223_4242)">
<path d="M42.7087 12.7949H7.29125C4.99 12.7949 3.125 14.6599 3.125 16.9612V39.8774C3.125 42.1787 4.99 44.0437 7.29125 44.0437H42.7075C45.0088 44.0437 46.8737 42.1774 46.8737 39.8774V16.9612C46.8737 14.6599 45.01 12.7949 42.7087 12.7949Z" fill="#86584A"/>
<path d="M35.2092 12.7947H31.4592V8.82344C31.4592 8.69219 31.353 8.58594 31.2217 8.58594H18.7805C18.6492 8.58594 18.543 8.69219 18.543 8.82344V12.7947H14.793V8.82344C14.793 6.62469 16.5817 4.83594 18.7805 4.83594H31.2217C33.4205 4.83594 35.2092 6.62469 35.2092 8.82344V12.7947Z" fill="#4E5968"/>
<path d="M14.6898 12.793H11.2373V44.043H14.6898V12.793Z" fill="#5E403B"/>
<path d="M38.7621 12.793H35.3096V44.043H38.7621V12.793Z" fill="#5E403B"/>
</g>
<defs>
<clipPath id="clip0_4223_4242">
<rect width="50" height="50" fill="white" transform="translate(0 0.375)"/>
</clipPath>
</defs>
</svg>
