<svg width="20" height="20" viewBox="0 0 20 20" fill="none" xmlns="http://www.w3.org/2000/svg">
<g clip-path="url(#clip0_4174_14549)">
<path d="M10 1.41211C5.1675 1.41211 1.25 4.91911 1.25 9.24511C1.25 10.9721 1.8795 12.5646 2.939 13.8586C3.327 14.3326 3.5045 14.9441 3.3875 15.5451L2.91 17.9936C2.83 18.4046 3.26 18.7261 3.6315 18.5326L6.538 17.0196C6.9485 16.8061 7.421 16.7366 7.8725 16.8391C8.5535 16.9936 9.2655 17.0781 10 17.0781C14.8325 17.0781 18.75 13.5711 18.75 9.24511C18.75 4.91911 14.8325 1.41211 10 1.41211Z" fill="#E2E5E8"/>
<path d="M6.37696 8.51562C6.91796 8.51562 7.35596 8.95413 7.35596 9.49463C7.35596 9.75413 7.25296 10.0031 7.06896 10.1871C6.88546 10.3706 6.63646 10.4741 6.37646 10.4741C5.83546 10.4741 5.39746 10.0356 5.39746 9.49512C5.39746 8.95462 5.83596 8.51612 6.37646 8.51612L6.37696 8.51562Z" fill="#333D4B"/>
<path d="M13.6226 10.4736C14.1632 10.4736 14.6016 10.0353 14.6016 9.49463C14.6016 8.95394 14.1632 8.51562 13.6226 8.51562C13.0819 8.51562 12.6436 8.95394 12.6436 9.49463C12.6436 10.0353 13.0819 10.4736 13.6226 10.4736Z" fill="#333D4B"/>
<path d="M9.99951 10.4736C10.5402 10.4736 10.9785 10.0353 10.9785 9.49463C10.9785 8.95394 10.5402 8.51562 9.99951 8.51562C9.45882 8.51562 9.02051 8.95394 9.02051 9.49463C9.02051 10.0353 9.45882 10.4736 9.99951 10.4736Z" fill="#333D4B"/>
</g>
<defs>
<clipPath id="clip0_4174_14549">
<rect width="20" height="20" fill="white"/>
</clipPath>
</defs>
</svg>
