<svg width="81" height="80" viewBox="0 0 81 80" fill="none" xmlns="http://www.w3.org/2000/svg">
<g clip-path="url(#clip0_4272_3892)">
<path d="M46.4839 9.15039C39.7059 9.15039 34.2119 14.6444 34.2119 21.4224C34.2119 28.2004 39.7059 33.6944 46.4839 33.6944C53.2619 33.6944 58.7559 28.2004 58.7559 21.4224C58.7559 14.6444 53.2619 9.15039 46.4839 9.15039ZM46.4839 24.9964C44.5099 24.9964 42.9099 23.3964 42.9099 21.4224C42.9099 19.4484 44.5099 17.8484 46.4839 17.8484C48.4579 17.8484 50.0579 19.4484 50.0579 21.4224C50.0579 23.3964 48.4579 24.9964 46.4839 24.9964Z" fill="#4E5968"/>
<path d="M23.7495 9.15039C16.9715 9.15039 11.4775 14.6444 11.4775 21.4224C11.4775 28.2004 16.9715 33.6944 23.7495 33.6944C30.5275 33.6944 36.0215 28.2004 36.0215 21.4224C36.0215 14.6444 30.5275 9.15039 23.7495 9.15039ZM23.7495 24.9964C21.7755 24.9964 20.1755 23.3964 20.1755 21.4224C20.1755 19.4484 21.7755 17.8484 23.7495 17.8484C25.7235 17.8484 27.3235 19.4484 27.3235 21.4224C27.3235 23.3964 25.7235 24.9964 23.7495 24.9964Z" fill="#4E5968"/>
<path d="M58.2998 54.0357L69.6718 60.0697C70.5178 60.5197 71.5378 59.9057 71.5378 58.9477V36.0537C71.5378 35.0957 70.5178 34.4817 69.6718 34.9317L58.2998 40.9657V54.0357Z" fill="#4E5968"/>
<path d="M22.1533 62.832H46.6853V69.294C46.6853 70.15 45.9913 70.844 45.1353 70.844H23.7033C22.8473 70.844 22.1533 70.15 22.1533 69.294V62.832Z" fill="#4E5968"/>
<path d="M55.2559 64.8531L46.6859 66.8351H22.1539L14.1379 64.8851C11.9299 64.3471 10.3779 62.3711 10.3779 60.0991V36.2411C10.3779 34.1951 12.0359 32.5391 14.0799 32.5391H55.3699C57.4159 32.5391 59.0719 34.1971 59.0719 36.2411V60.0531C59.0719 62.3451 57.4899 64.3351 55.2559 64.8511V64.8531Z" fill="#AFB7C0"/>
</g>
<defs>
<clipPath id="clip0_4272_3892">
<rect width="80" height="80" fill="white" transform="translate(0.833008)"/>
</clipPath>
</defs>
</svg>
