<svg width="81" height="81" viewBox="0 0 81 81" fill="none" xmlns="http://www.w3.org/2000/svg">
<path d="M40.5 8C34.0721 8 27.7886 9.90609 22.444 13.4772C17.0994 17.0484 12.9338 22.1242 10.4739 28.0628C8.01408 34.0014 7.37047 40.5361 8.62449 46.8404C9.87851 53.1448 12.9738 58.9358 17.519 63.481C22.0643 68.0262 27.8552 71.1215 34.1596 72.3755C40.464 73.6295 46.9986 72.9859 52.9372 70.5261C58.8758 68.0662 63.9516 63.9006 67.5228 58.556C71.0939 53.2114 73 46.9279 73 40.5C72.9909 31.8833 69.5639 23.622 63.4709 17.5291C57.378 11.4361 49.1168 8.0091 40.5 8ZM54.7688 34.7688L37.2688 52.2688C37.0366 52.5012 36.7609 52.6856 36.4574 52.8114C36.1539 52.9372 35.8286 53.002 35.5 53.002C35.1715 53.002 34.8462 52.9372 34.5427 52.8114C34.2392 52.6856 33.9634 52.5012 33.7313 52.2688L26.2313 44.7688C25.7622 44.2996 25.4986 43.6634 25.4986 43C25.4986 42.3366 25.7622 41.7004 26.2313 41.2312C26.7004 40.7621 27.3366 40.4986 28 40.4986C28.6634 40.4986 29.2997 40.7621 29.7688 41.2312L35.5 46.9656L51.2313 31.2312C51.4635 30.999 51.7393 30.8147 52.0428 30.689C52.3463 30.5633 52.6715 30.4986 53 30.4986C53.3285 30.4986 53.6538 30.5633 53.9573 30.689C54.2607 30.8147 54.5365 30.999 54.7688 31.2312C55.001 31.4635 55.1853 31.7393 55.311 32.0428C55.4367 32.3462 55.5014 32.6715 55.5014 33C55.5014 33.3285 55.4367 33.6538 55.311 33.9572C55.1853 34.2607 55.001 34.5365 54.7688 34.7688Z" fill="#23E7A0"/>
</svg>
