<svg width="81" height="80" viewBox="0 0 81 80" fill="none" xmlns="http://www.w3.org/2000/svg">
<g clip-path="url(#clip0_4284_3884)">
<path fill-rule="evenodd" clip-rule="evenodd" d="M15.296 75.1713C11.726 75.1713 8.83398 72.2773 8.83398 68.7093V50.1913L15.612 34.3113C16.808 31.5113 19.558 29.6953 22.602 29.6953H58.4C61.444 29.6953 64.194 31.5113 65.39 34.3113L72.168 50.1913V68.7093C72.168 72.2793 69.274 75.1713 65.706 75.1713H15.296Z" fill="#2085F7"/>
<path d="M56.7054 35.0859H24.2934C22.7404 35.0859 21.4814 36.3449 21.4814 37.8979V63.7499C21.4814 65.303 22.7404 66.5619 24.2934 66.5619H56.7054C58.2585 66.5619 59.5174 65.303 59.5174 63.7499V37.8979C59.5174 36.3449 58.2585 35.0859 56.7054 35.0859Z" fill="#D9DDE0"/>
<path d="M61.3743 41.9531H19.6263C17.9838 41.9531 16.6523 43.2846 16.6523 44.9271V62.7851C16.6523 64.4276 17.9838 65.7591 19.6263 65.7591H61.3743C63.0168 65.7591 64.3483 64.4276 64.3483 62.7851V44.9271C64.3483 43.2846 63.0168 41.9531 61.3743 41.9531Z" fill="white"/>
<path fill-rule="evenodd" clip-rule="evenodd" d="M72.166 50.1914H8.83398V68.7094C8.83398 72.2794 11.728 75.1714 15.296 75.1714H65.704C69.274 75.1714 72.166 72.2774 72.166 68.7094V50.1914Z" fill="#64A7FF"/>
<path d="M54.0946 14.8082L41.8286 27.0742C41.0946 27.8082 39.9066 27.8082 39.1746 27.0742L26.9086 14.8082C26.2986 14.1982 26.7306 13.1542 27.5926 13.1542H33.5906C34.1866 13.1542 34.6686 12.6722 34.6686 12.0762V5.74022C34.6686 5.23422 35.0786 4.82422 35.5846 4.82422H45.4186C45.9246 4.82422 46.3346 5.23422 46.3346 5.74022V12.0762C46.3346 12.6722 46.8166 13.1542 47.4126 13.1542H53.4106C54.2726 13.1542 54.7046 14.1982 54.0946 14.8082Z" fill="#1E6EF4"/>
</g>
<defs>
<clipPath id="clip0_4284_3884">
<rect width="80" height="80" fill="white" transform="translate(0.5)"/>
</clipPath>
</defs>
</svg>
