<svg width="81" height="80" viewBox="0 0 81 80" fill="none" xmlns="http://www.w3.org/2000/svg">
<g clip-path="url(#clip0_4272_3886)">
<path d="M35.9385 70H45.0605C46.9018 70 48.3945 68.5073 48.3945 66.666V44.912C48.3945 43.0707 46.9018 41.578 45.0605 41.578H35.9385C34.0972 41.578 32.6045 43.0707 32.6045 44.912V66.666C32.6045 68.5073 34.0972 70 35.9385 70Z" fill="#007FF3"/>
<path d="M13.8331 70H22.9551C24.7964 70 26.2891 68.5073 26.2891 66.666L26.2891 29.124C26.2891 27.2827 24.7964 25.79 22.9551 25.79H13.8331C11.9917 25.79 10.4991 27.2827 10.4991 29.124L10.4991 66.666C10.4991 68.5073 11.9917 70 13.8331 70Z" fill="#00BC79"/>
<path d="M58.044 70H67.166C69.0073 70 70.5 68.5073 70.5 66.666V13.334C70.5 11.4927 69.0073 10 67.166 10H58.044C56.2027 10 54.71 11.4927 54.71 13.334L54.71 66.666C54.71 68.5073 56.2027 70 58.044 70Z" fill="#FC2D4C"/>
</g>
<defs>
<clipPath id="clip0_4272_3886">
<rect width="80" height="80" fill="white" transform="translate(0.5)"/>
</clipPath>
</defs>
</svg>
