<svg width="20" height="20" viewBox="0 0 20 20" fill="none" xmlns="http://www.w3.org/2000/svg">
<g clip-path="url(#clip0_4174_14522)">
<path d="M8.90553 14.5059H11.095C11.584 14.5059 11.9805 14.9029 11.9805 15.3914V18.4664H8.01953V15.3914C8.01953 14.9024 8.41653 14.5059 8.90503 14.5059H8.90553Z" fill="#6B7683"/>
<path d="M17.5585 7.31378L10.519 1.71628C10.2155 1.47478 9.78548 1.47478 9.48148 1.71628L2.44298 7.31378C2.04548 7.62978 1.81348 8.11028 1.81348 8.61828V16.4668C1.81348 17.5713 2.70898 18.4668 3.81348 18.4668H8.33398V15.3393C8.33398 14.8793 8.70698 14.5058 9.16748 14.5058H10.834C11.294 14.5058 11.6675 14.8788 11.6675 15.3393V18.4668H16.1875C17.292 18.4668 18.1875 17.5713 18.1875 16.4668V8.61828C18.1875 8.11028 17.9565 7.62978 17.5585 7.31378Z" fill="#DDE2E6"/>
<path d="M17.5575 7.31328L10.5185 1.71628C10.215 1.47478 9.785 1.47478 9.4815 1.71628L2.442 7.31378C2.0445 7.62978 1.8125 8.11028 1.8125 8.61828V11.1478L9.481 5.04978C9.7845 4.80828 10.2145 4.80828 10.5185 5.04978L18.1865 11.1478V8.61828C18.1865 8.11028 17.9545 7.62978 17.557 7.31328H17.5575Z" fill="#4883FB"/>
</g>
<defs>
<clipPath id="clip0_4174_14522">
<rect width="20" height="20" fill="white"/>
</clipPath>
</defs>
</svg>
