<svg width="20" height="20" viewBox="0 0 20 20" fill="none" xmlns="http://www.w3.org/2000/svg">
<g clip-path="url(#clip0_4174_14540)">
<path d="M17.3316 7.81637C17.1926 3.95787 14.0276 0.837868 10.1676 0.751868C6.03956 0.659868 2.66406 3.97887 2.66406 8.08637C2.66406 9.32987 2.97456 10.5009 3.52056 11.5269L3.51756 11.5249C3.52556 11.5394 3.53306 11.5524 3.54106 11.5664C3.56156 11.6044 3.58356 11.6414 3.60506 11.6794C3.62706 11.7184 3.64956 11.7574 3.67156 11.7949C3.70706 11.8559 3.74356 11.9159 3.78106 11.9754C3.80256 12.0094 3.82356 12.0419 3.84506 12.0749C3.87256 12.1174 3.89956 12.1604 3.92756 12.2024C4.96656 13.7494 5.85006 13.8604 6.16306 15.0409H9.33806V11.5099L7.64356 9.81537C7.36956 9.54137 7.36956 9.09737 7.64356 8.82337C7.91756 8.54937 8.36156 8.54937 8.63556 8.82337L10.0111 10.1989L11.3646 8.84537C11.6386 8.57137 12.0826 8.57137 12.3566 8.84537C12.6306 9.11937 12.6306 9.56337 12.3566 9.83737L10.6621 11.5319V15.0404H13.8371C14.1511 13.8554 15.0396 13.7479 16.0831 12.1874C16.0841 12.1864 16.0846 12.1849 16.0856 12.1839C16.1356 12.1094 16.1856 12.0309 16.2361 11.9494C16.2621 11.9074 16.2876 11.8654 16.3126 11.8229C16.3696 11.7274 16.4266 11.6294 16.4836 11.5244L16.4791 11.5269C17.0646 10.4264 17.3796 9.15987 17.3311 7.81587L17.3316 7.81637Z" fill="#FFE09A"/>
<path d="M10.6615 15.0416V11.5331L12.356 9.83864C12.63 9.56464 12.63 9.12064 12.356 8.84664C12.082 8.57264 11.638 8.57264 11.364 8.84664L10.0105 10.2001L8.635 8.82464C8.361 8.55064 7.917 8.55064 7.643 8.82464C7.369 9.09864 7.369 9.54264 7.643 9.81664L9.3375 11.5111V15.0421H10.662L10.6615 15.0416Z" fill="#FF9000"/>
<path d="M6.17676 15.0415C6.18026 15.1205 6.18276 15.2025 6.18376 15.2885V16.728C6.18376 18.1205 7.41276 19.2495 8.80576 19.2495H11.1938C12.5863 19.2495 13.8308 18.1205 13.8308 16.728V15.344C13.8308 15.237 13.8338 15.1375 13.8383 15.041H6.17726L6.17676 15.0415Z" fill="#7D8996"/>
<path d="M13.9238 15.1543H6.0918V16.6543H13.9238V15.1543Z" fill="#4B596A"/>
</g>
<defs>
<clipPath id="clip0_4174_14540">
<rect width="20" height="20" fill="white"/>
</clipPath>
</defs>
</svg>
