<svg width="51" height="51" viewBox="0 0 51 51" fill="none" xmlns="http://www.w3.org/2000/svg">
<g clip-path="url(#clip0_4193_3954)">
<path d="M36.0732 22.3542H14.9082V13.9692C14.9082 8.13422 19.6557 3.38672 25.4907 3.38672C31.3257 3.38672 36.0732 8.13422 36.0732 13.9692V22.3542ZM18.6582 18.6042H32.3232V13.9692C32.3232 10.2017 29.2582 7.13672 25.4907 7.13672C21.7232 7.13672 18.6582 10.2017 18.6582 13.9692V18.6042Z" fill="#6B7683"/>
<path d="M39.2402 16.4707H11.7402C8.97881 16.4707 6.74023 18.7093 6.74023 21.4707V40.2207C6.74023 42.9821 8.97881 45.2207 11.7402 45.2207H39.2402C42.0017 45.2207 44.2402 42.9821 44.2402 40.2207V21.4707C44.2402 18.7093 42.0017 16.4707 39.2402 16.4707Z" fill="#AFB7C0"/>
<path d="M25.4902 31.5215C27.5613 31.5215 29.2402 29.8426 29.2402 27.7715C29.2402 25.7004 27.5613 24.0215 25.4902 24.0215C23.4192 24.0215 21.7402 25.7004 21.7402 27.7715C21.7402 29.8426 23.4192 31.5215 25.4902 31.5215Z" fill="#313D4C"/>
<path d="M25.4902 37.4568C24.454 37.4568 23.6152 36.6168 23.6152 35.5818V28.8105C23.6152 27.7755 24.454 26.9355 25.4902 26.9355C26.5265 26.9355 27.3652 27.7755 27.3652 28.8105V35.5818C27.3652 36.6168 26.5265 37.4568 25.4902 37.4568Z" fill="#313D4C"/>
</g>
<defs>
<clipPath id="clip0_4193_3954">
<rect width="50" height="50" fill="white" transform="translate(0.5 0.111328)"/>
</clipPath>
</defs>
</svg>
