<svg width="81" height="80" viewBox="0 0 81 80" fill="none" xmlns="http://www.w3.org/2000/svg">
<g clip-path="url(#clip0_4284_3892)">
<path d="M70.1685 74.0006C69.1445 74.0006 68.1225 73.6106 67.3405 72.8286L49.3785 54.8666C47.8165 53.3046 47.8165 50.7726 49.3785 49.2106C50.9405 47.6486 53.4725 47.6486 55.0345 49.2106L72.9965 67.1726C74.5585 68.7346 74.5585 71.2666 72.9965 72.8286C72.2145 73.6106 71.1925 74.0006 70.1685 74.0006Z" fill="#4E5968"/>
<path d="M59.4286 34.63C59.4286 21.05 48.3806 10 34.7986 10C28.0086 10 21.8506 12.762 17.3906 17.222L52.2046 52.038C56.6646 47.578 59.4286 41.42 59.4286 34.63Z" fill="#E5E9EE"/>
<path d="M52.206 52.0387L17.39 17.2227C12.93 21.6827 10.168 27.8407 10.168 34.6307C10.168 48.2107 21.218 59.2607 34.798 59.2607C41.588 59.2607 47.746 56.4987 52.206 52.0387Z" fill="#F0F3F6"/>
<path d="M34.796 62.258C19.562 62.258 7.16797 49.864 7.16797 34.63C7.16797 19.396 19.562 7 34.796 7C50.03 7 62.426 19.394 62.426 34.63C62.426 49.866 50.032 62.258 34.796 62.258ZM34.796 13C22.87 13 13.168 22.704 13.168 34.63C13.168 46.556 22.872 56.258 34.796 56.258C46.72 56.258 56.426 46.554 56.426 34.63C56.426 22.706 46.722 13 34.796 13Z" fill="#A3ADB7"/>
</g>
<defs>
<clipPath id="clip0_4284_3892">
<rect width="80" height="80" fill="white" transform="translate(0.166992)"/>
</clipPath>
</defs>
</svg>
