<svg width="20" height="20" viewBox="0 0 20 20" fill="none" xmlns="http://www.w3.org/2000/svg">
<g clip-path="url(#clip0_4174_14531)">
<path d="M9.99998 1C8.00998 1 6.39648 2.62 6.39648 4.618V9.6055C6.39648 11.6035 8.00948 13.2235 9.99998 13.2235C11.9905 13.2235 13.6035 11.604 13.6035 9.6055V4.618C13.6035 2.62 11.99 1 9.99998 1Z" fill="#3D3D3D"/>
<path d="M9.99933 16.5177C6.20083 16.5177 3.11133 13.4167 3.11133 9.60473C3.11133 9.16123 3.47033 8.80273 3.91333 8.80273C4.35633 8.80273 4.71533 9.16173 4.71533 9.60473C4.71533 12.5317 7.08533 14.9132 9.99883 14.9132C12.9123 14.9132 15.2833 12.5317 15.2833 9.60473C15.2833 9.16123 15.6423 8.80273 16.0853 8.80273C16.5283 8.80273 16.8873 9.16173 16.8873 9.60473C16.8873 13.4167 13.7968 16.5177 9.99833 16.5177H9.99933Z" fill="#767676"/>
<path d="M9.99927 19.8021C9.55577 19.8021 9.19727 19.4431 9.19727 19.0001V15.7161C9.19727 15.2726 9.55627 14.9141 9.99927 14.9141C10.4423 14.9141 10.8013 15.2731 10.8013 15.7161V19.0001C10.8013 19.4436 10.4423 19.8021 9.99927 19.8021Z" fill="#767676"/>
</g>
<defs>
<clipPath id="clip0_4174_14531">
<rect width="20" height="20" fill="white"/>
</clipPath>
</defs>
</svg>
