<svg width="51" height="51" viewBox="0 0 51 51" fill="none" xmlns="http://www.w3.org/2000/svg">
<g clip-path="url(#clip0_4228_4301)">
<path d="M32.9425 45.1245C28.0688 45.1245 24.25 39.717 24.25 32.812V21.6758C24.25 20.9845 24.8088 20.4258 25.5 20.4258C26.1913 20.4258 26.75 20.9845 26.75 21.6758V32.812C26.75 38.1308 29.5863 42.6245 32.9425 42.6245C33.6338 42.6245 34.1925 43.1833 34.1925 43.8745C34.1925 44.5658 33.6338 45.1245 32.9425 45.1245Z" fill="#23B169"/>
<path d="M2.63281 8.4743C6.62781 6.17305 12.3753 6.28805 17.4491 9.2168C22.5216 12.1456 25.4966 17.0668 25.5003 21.6768C21.5053 23.9781 15.7566 23.8631 10.6841 20.9343C5.61156 18.0056 2.63656 13.0843 2.63281 8.4743Z" fill="#68C76F"/>
<path d="M48.3695 8.4743C44.3745 6.17305 38.627 6.28805 33.5532 9.2168C28.4807 12.1456 25.5057 17.0668 25.502 21.6768C29.497 23.9781 35.2457 23.8631 40.3182 20.9343C45.3907 18.0056 48.3657 13.0843 48.3695 8.4743Z" fill="#68C76F"/>
</g>
<defs>
<clipPath id="clip0_4228_4301">
<rect width="50" height="50" fill="white" transform="translate(0.5 0.375)"/>
</clipPath>
</defs>
</svg>
