<svg width="50" height="51" viewBox="0 0 50 51" fill="none" xmlns="http://www.w3.org/2000/svg">
<g clip-path="url(#clip0_4223_4199)">
<path d="M23.0531 37.4414C17.5506 37.4414 13.0906 32.9814 13.0906 27.4789C13.0906 21.9764 17.5506 17.5164 23.0531 17.5164C24.4994 17.5164 25.8706 17.8314 27.1106 18.3864C28.2381 17.4502 29.7369 16.2627 31.3181 15.0327C28.9506 13.4577 26.1106 12.5352 23.0531 12.5352C14.7994 12.5352 8.10938 19.2264 8.10938 27.4789C8.10938 35.7314 14.8006 42.4227 23.0531 42.4227C31.3056 42.4227 37.9981 35.7314 37.9981 27.4789C37.9981 24.3064 37.0031 21.3702 35.3169 18.9514C34.1156 20.5377 32.9531 22.0427 32.0319 23.1814C32.6569 24.4839 33.0169 25.9377 33.0169 27.4789C33.0169 32.9814 28.5556 37.4414 23.0531 37.4414Z" fill="#E5E5E5"/>
<path d="M23.0516 28.3211C22.8141 28.3211 22.5753 28.2311 22.3928 28.0511C22.0253 27.6873 22.0216 27.0936 22.3853 26.7248L25.2053 23.8698C25.0503 23.5761 24.8966 23.2186 24.7878 22.8248C24.2453 22.6223 23.6641 22.4961 23.0516 22.4961C20.3003 22.4961 18.0703 24.7261 18.0703 27.4773C18.0703 30.2286 20.3003 32.4586 23.0516 32.4586C25.8028 32.4586 28.0328 30.2286 28.0328 27.4773C28.0328 26.8161 27.8978 26.1873 27.6641 25.6111C27.2391 25.5073 26.8541 25.3473 26.5391 25.1873L23.7191 28.0423C23.5366 28.2286 23.2928 28.3211 23.0516 28.3211Z" fill="#E5E5E5"/>
<path d="M45.2752 6.22002L46.9902 4.48377C47.3539 4.11627 47.3502 3.52127 46.9827 3.15752C46.6127 2.79377 46.0189 2.79627 45.6564 3.16627L43.9414 4.90252C44.1352 5.51377 44.2264 5.94752 44.2264 5.94752C44.2264 5.94752 44.6602 6.03377 45.2739 6.22002H45.2752Z" fill="#243D55"/>
<path d="M22.3857 26.7268C22.022 27.0943 22.0257 27.6893 22.3932 28.053C22.5757 28.233 22.8145 28.323 23.052 28.323C23.2932 28.323 23.5357 28.2305 23.7182 28.0443L26.5382 25.1893C26.0395 24.9355 25.7182 24.6868 25.7182 24.6868C25.7182 24.6868 25.4657 24.368 25.2057 23.873L22.3857 26.7268Z" fill="#243D55"/>
<path d="M38.537 14.6383C38.4995 14.6883 38.462 14.7508 38.4245 14.8008C37.462 16.0883 36.387 17.5383 35.312 18.9508C34.112 20.5383 32.9495 22.0383 32.0245 23.1883C31.4245 23.9258 30.9245 24.5258 30.5995 24.8508C29.6745 25.7883 28.5745 25.8383 27.662 25.6133C27.237 25.5133 26.8495 25.3508 26.537 25.1883C26.037 24.9383 25.712 24.6883 25.712 24.6883C25.712 24.6883 25.462 24.3633 25.1995 23.8758C25.0495 23.5758 24.8995 23.2258 24.787 22.8258C24.5245 21.9008 24.537 20.7758 25.487 19.8133C25.812 19.4883 26.387 18.9883 27.112 18.3883C28.237 17.4508 29.737 16.2633 31.312 15.0383C32.712 13.9508 34.1495 12.8508 35.4245 11.8758C35.487 11.8258 35.5495 11.7883 35.612 11.7383C35.9495 13.0383 36.3745 13.9008 36.3745 13.9008C36.3745 13.9008 37.237 14.3133 38.537 14.6383Z" fill="#3D3D3D"/>
<path d="M36.373 13.8987L44.228 5.94623C44.228 5.94623 44.1367 5.51373 43.943 4.90123C43.278 2.80873 41.3942 -1.39502 37.7167 2.32748C34.6455 5.43623 34.9855 9.35123 35.608 11.7375C35.9492 13.0425 36.373 13.8987 36.373 13.8987Z" fill="#A41926"/>
<path d="M37.9923 27.4797C37.9923 35.7334 31.3011 42.4234 23.0473 42.4234C14.7936 42.4234 8.10359 35.7322 8.10359 27.4797C8.10359 19.2272 14.7948 12.5359 23.0473 12.5359C26.1048 12.5359 28.9448 13.4584 31.3123 15.0334C32.7061 13.9509 34.1448 12.8484 35.4198 11.8784C32.0198 9.17844 27.7261 7.55469 23.0473 7.55469C12.0423 7.55469 3.12109 16.4759 3.12109 27.4809C3.12109 38.4859 12.0423 47.4072 23.0473 47.4072C34.0523 47.4072 42.9736 38.4859 42.9736 27.4809C42.9736 22.6634 41.2636 18.2459 38.4186 14.8009C37.4648 16.0884 36.3786 17.5422 35.3098 18.9522C36.9961 21.3722 37.9923 24.3072 37.9923 27.4797Z" fill="#EF4452"/>
<path d="M23.0484 32.4633C20.2972 32.4633 18.0672 30.2333 18.0672 27.482C18.0672 24.7308 20.2972 22.5008 23.0484 22.5008C23.6622 22.5008 24.2422 22.627 24.7847 22.8295C24.5284 21.9008 24.5372 20.7758 25.4897 19.812C25.8084 19.4883 26.3884 18.9858 27.1059 18.3895C25.8659 17.8345 24.4947 17.5195 23.0484 17.5195C17.5459 17.5195 13.0859 21.9795 13.0859 27.482C13.0859 32.9845 17.5459 37.4445 23.0484 37.4445C28.5509 37.4445 33.0109 32.9845 33.0109 27.482C33.0109 25.9408 32.6509 24.487 32.0259 23.1845C31.4247 23.927 30.9184 24.5258 30.5947 24.8533C29.6684 25.7908 28.5772 25.8383 27.6609 25.6145C27.8947 26.192 28.0297 26.8195 28.0297 27.4808C28.0297 30.232 25.7997 32.462 23.0484 32.462V32.4633Z" fill="#EF4452"/>
<path d="M36.3684 13.8998C36.3684 13.8998 37.2284 14.3135 38.5384 14.6385C40.9322 15.2323 44.8497 15.5235 47.9209 12.4135C51.5984 8.69102 47.3709 6.85852 45.2697 6.21977C44.6559 6.03352 44.2222 5.94727 44.2222 5.94727L36.3684 13.8998Z" fill="#EF4452"/>
</g>
<defs>
<clipPath id="clip0_4223_4199">
<rect width="50" height="50" fill="white" transform="translate(0 0.375)"/>
</clipPath>
</defs>
</svg>
