<svg width="120" height="120" viewBox="0 0 120 120" fill="none" xmlns="http://www.w3.org/2000/svg">
<path d="M34.2097 107.25L55.1227 97.1009C57.1897 96.0959 58.5037 94.0019 58.5037 91.7039V57.7949C58.5037 55.4969 57.1897 53.3999 55.1227 52.3979L42.7357 46.3859C36.0577 43.1429 31.8157 36.3719 31.8157 28.9499H88.1886C88.1886 36.3719 83.9496 43.1459 77.2687 46.3859L64.8817 52.3979C62.8147 53.3999 61.5007 55.4969 61.5007 57.7949V91.7039C61.5007 94.0019 62.8147 96.0989 64.8817 97.1009L85.7946 107.25H93.9067V91.0559C93.9067 82.1249 88.8066 73.9799 80.7726 70.0829L66.0937 62.9579C64.9627 62.4089 64.2426 61.2599 64.2426 60.0029C64.2426 58.7459 64.9627 57.5969 66.0937 57.0479L80.7726 49.9229C88.8066 46.0229 93.9067 37.8779 93.9067 28.9499V12.7559H26.0977V28.9499C26.0977 37.8809 31.1977 46.0259 39.2317 49.9229L53.9107 57.0479C55.0417 57.5969 55.7617 58.7459 55.7617 60.0029C55.7617 61.2599 55.0417 62.4089 53.9107 62.9579L39.2317 70.0829C31.1977 73.9829 26.0977 82.1279 26.0977 91.0559V107.25H34.2097Z" fill="#DDDDDE"/>
<path d="M61.4966 91.6993V57.7903C61.4966 55.4923 62.8106 53.3953 64.8776 52.3933L77.2646 46.3813C83.9426 43.1383 88.1846 36.3673 88.1846 28.9453H31.8086C31.8086 36.3673 36.0476 43.1413 42.7286 46.3813L55.1156 52.3933C57.1826 53.3953 58.4966 55.4923 58.4966 57.7903V91.6993C58.4966 93.9973 57.1826 96.0943 55.1156 97.0963L34.2026 107.245H85.7876L64.8746 97.0963C62.8076 96.0913 61.4966 93.9973 61.4966 91.6993Z" fill="#86AAF4"/>
<path d="M93.9046 12.75C95.9746 12.75 97.6546 11.07 97.6546 9C97.6546 6.93 95.9746 5.25 93.9046 5.25H26.0986C24.0286 5.25 22.3486 6.93 22.3486 9C22.3486 11.07 24.0286 12.75 26.0986 12.75H93.9046Z" fill="#0F2F70"/>
<path d="M93.9046 107.25H26.0986C24.0286 107.25 22.3486 108.93 22.3486 111C22.3486 113.07 24.0286 114.75 26.0986 114.75H93.9076C95.9776 114.75 97.6576 113.07 97.6576 111C97.6576 108.93 95.9746 107.25 93.9046 107.25Z" fill="#0F2F70"/>
</svg>
